#!OML:ASF E:\Steps\Project 1\Capture day 1\Session 2\Subject.ASF
:FULLY-SPECIFIED
:DEGREES
143
root -0.0711713 19.1371 19.5525 -156.953 0.719908 185.202
lowerback -25.2446 -4.56533 -8.35037
upperback -1.22008 -3.24845 0.859478
thorax 13.3441 -1.83462 4.64854
lowerneck -3.09333 -7.89011 -0.796824
upperneck 18.4532 -10.5748 4.30076
head 6.38968 -4.48512 0.843175
rclavicle 1.72943e-014 -3.33958e-014
rhumerus -43.2456 -15.6848 -76.6269
rradius 37.1124
rwrist -7.89983
rhand -5.17311 -54.7192
rfingers 7.12502
rthumb 20.6271 -83.6432
lclavicle 1.72943e-014 -3.33958e-014
lhumerus -33.6797 -7.27266 73.2608
lradius 30.5474
lwrist 3.23705
lhand -19.5184 -10.7076
lfingers 7.12502
lthumb 6.80478 19.1631
rfemur -54.2096 -5.79879 20.7135
rtibia 51.5453
rfoot -14.5711 -7.77877
rtoes -26.2375
lfemur -27.5103 -9.16679 -12.0379
ltibia 34.8321
lfoot -27.4604 3.20322
ltoes -12.5802
144
root -0.0299143 19.1198 19.5246 -157.044 0.409092 185.219
lowerback -24.9155 -4.68778 -8.59306
upperback -1.38214 -3.36233 0.866493
thorax 13.0066 -1.8783 4.76709
lowerneck -2.84794 -7.93218 -0.874473
upperneck 18.4834 -10.6297 4.46378
head 6.37197 -4.49857 0.912939
rclavicle -8.54774e-015 7.95139e-015
rhumerus -43.7953 -15.9128 -76.3262
rradius 37.114
rwrist -7.92059
rhand -5.37778 -54.8285
rfingers 7.12502
rthumb 20.4304 -83.7736
lclavicle -8.54774e-015 7.95139e-015
lhumerus -33.9729 -7.65366 73.0605
lradius 31.1437
lwrist 3.35487
lhand -19.5202 -10.6373
lfingers 7.12502
lthumb 6.803 19.2334
rfemur -54.4933 -6.18192 19.9378
rtibia 50.5496
rfoot -13.1004 -8.49975
rtoes -26.7714
lfemur -27.6557 -9.28561 -11.7743
ltibia 35.3899
lfoot -27.6949 3.18501
ltoes -13.7081
145
root 0.00966785 19.1 19.4912 -157.278 -0.117201 185.044
lowerback -24.6255 -4.89651 -8.98945
upperback -1.36076 -3.55078 0.819677
thorax 12.9258 -1.98531 4.87753
lowerneck -2.83157 -8.08493 -0.76955
upperneck 18.5495 -10.8468 4.47571
head 6.39206 -4.5901 0.885152
rclavicle 7.55382e-015 7.79236e-014
rhumerus -44.0253 -16.1109 -76.1481
rradius 36.9747
rwrist -8.01763
rhand -5.55719 -55.315
rfingers 7.12502
rthumb 20.258 -84.2786
lclavicle 7.55382e-015 7.79236e-014
lhumerus -33.6958 -8.14758 72.8881
lradius 31.2837
lwrist 3.48533
lhand -20.3356 -10.8419
lfingers 7.12502
lthumb 6.01585 19.0527
rfemur -54.5216 -6.85952 18.9358
rtibia 49.4828
rfoot -12.0972 -9.01712
rtoes -25.3058
lfemur -27.6917 -9.71561 -11.6977
ltibia 35.9806
lfoot -27.8861 3.19977
ltoes -15.2093
146
root 0.0554237 19.0784 19.4502 -157.465 -0.641031 185.085
lowerback -24.5237 -5.06227 -9.19656
upperback -1.30782 -3.72239 0.807701
thorax 12.9738 -2.0805 4.91952
lowerneck -2.72556 -8.20155 -0.634697
upperneck 18.4618 -11.0197 4.52015
head 6.34628 -4.66541 0.871904
rclavicle 8.54774e-015 -2.70347e-014
rhumerus -44.191 -16.3298 -76.0032
rradius 36.7559
rwrist -7.9135
rhand -5.35517 -55.4671
rfingers 7.12502
rthumb 20.4521 -84.41
lclavicle 8.54774e-015 -2.70347e-014
lhumerus -33.4759 -8.63692 72.6532
lradius 31.5099
lwrist 3.58955
lhand -19.7486 -10.7384
lfingers 7.12502
lthumb 6.58255 19.1393
rfemur -54.5342 -7.30691 18.0977
rtibia 48.4434
rfoot -11.2578 -9.40759
rtoes -23.4821
lfemur -27.6726 -10.0045 -11.3848
ltibia 36.5088
lfoot -28.0269 3.25907
ltoes -16.7705
147
root 0.106583 19.0577 19.4057 -157.667 -1.08286 185.259
lowerback -24.41 -4.61953 -9.5507
upperback -1.29029 -4.016 0.782589
thorax 12.9426 -2.64288 4.90264
lowerneck -2.73015 -8.23948 -0.506385
upperneck 18.6641 -11.0721 4.50954
head 6.40552 -4.66684 0.842738
rclavicle -1.19271e-014 1.90833e-014
rhumerus -44.5136 -16.5899 -75.8971
rradius 36.6339
rwrist -7.66523
rhand -5.03677 -55.4702
rfingers 7.12502
rthumb 20.7581 -84.3799
lclavicle -1.19271e-014 1.90833e-014
lhumerus -33.4546 -9.13269 72.3308
lradius 31.8818
lwrist 3.62424
lhand -19.4667 -10.6254
lfingers 7.12502
lthumb 6.85465 19.2437
rfemur -54.4894 -7.63712 17.367
rtibia 47.2788
rfoot -10.1361 -9.72254
rtoes -22.8215
lfemur -27.5289 -10.1414 -10.9301
ltibia 36.8855
lfoot -28.2602 3.23797
ltoes -17.4095
148
root 0.159598 19.0443 19.3586 -158.156 -1.55503 185.416
lowerback -24.0191 -4.79263 -9.72247
upperback -1.1847 -4.21344 0.795199
thorax 12.901 -2.7373 4.95668
lowerneck -2.90446 -8.29887 -0.477905
upperneck 18.9952 -11.1645 4.54328
head 6.54488 -4.68311 0.830522
rclavicle 1.51076e-014 6.04305e-014
rhumerus -44.8191 -16.6112 -75.8891
rradius 36.6051
rwrist -7.66301
rhand -4.94469 -55.8043
rfingers 7.12502
rthumb 20.8466 -84.7044
lclavicle 1.51076e-014 6.04305e-014
lhumerus -33.4574 -9.51421 72.0302
lradius 32.2575
lwrist 3.54608
lhand -19.6441 -10.4833
lfingers 7.12502
lthumb 6.6834 19.3912
rfemur -54.0129 -7.9661 16.5743
rtibia 46.0403
rfoot -9.11339 -9.92635
rtoes -22.3385
lfemur -27.0261 -10.3307 -10.5384
ltibia 37.1961
lfoot -28.6199 3.00373
ltoes -17.3516
149
root 0.211082 19.0211 19.311 -158.312 -1.82243 185.602
lowerback -24.0737 -4.89802 -9.85025
upperback -1.09914 -4.30109 0.825619
thorax 13.0605 -2.79051 5.02661
lowerneck -2.93781 -8.36209 -0.525906
upperneck 18.8947 -11.2826 4.70826
head 6.53477 -4.73708 0.880477
rclavicle -1.5704e-014 -4.92986e-014
rhumerus -44.992 -16.7121 -75.8098
rradius 36.5095
rwrist -7.75921
rhand -5.00154 -55.9243
rfingers 7.12502
rthumb 20.7919 -84.8303
lclavicle -1.5704e-014 -4.92986e-014
lhumerus -33.5433 -9.98026 71.8042
lradius 32.8963
lwrist 3.59607
lhand -20.4492 -10.6404
lfingers 7.12502
lthumb 5.9061 19.2573
rfemur -54.0388 -8.14814 15.8225
rtibia 44.9807
rfoot -8.12781 -10.0203
rtoes -21.8723
lfemur -26.8983 -10.3583 -10.1366
ltibia 37.602
lfoot -28.9489 3.07204
ltoes -19.1951
150
root 0.260872 18.9895 19.2665 -158.131 -1.82867 185.927
lowerback -24.4048 -4.83389 -9.73321
upperback -1.14915 -4.22752 0.819099
thorax 13.1606 -2.75626 4.96546
lowerneck -2.96723 -8.40203 -0.499867
upperneck 18.7846 -11.3623 4.80537
head 6.51153 -4.77291 0.900924
rclavicle 3.4191e-014 -2.70347e-014
rhumerus -45.2686 -17.0167 -75.6491
rradius 36.3491
rwrist -7.7053
rhand -4.99567 -55.7711
rfingers 7.12502
rthumb 20.7976 -84.6765
lclavicle 3.4191e-014 -2.70347e-014
lhumerus -33.7464 -10.7164 71.5757
lradius 33.7123
lwrist 4.00274
lhand -20.8055 -10.679
lfingers 7.12502
lthumb 5.5621 19.228
rfemur -54.5547 -8.10902 15.2169
rtibia 43.8853
rfoot -6.93673 -10.0443
rtoes -22.1499
lfemur -27.0827 -10.0993 -9.60874
ltibia 37.9836
lfoot -29.196 3.66403
ltoes -22.9762
151
root 0.316677 18.9692 19.2096 -158.516 -2.46002 186.049
lowerback -24.158 -5.03582 -9.97202
upperback -1.07356 -4.44237 0.879719
thorax 13.1767 -2.86821 5.10012
lowerneck -2.97334 -8.45812 -0.482949
upperneck 18.9008 -11.4381 4.8088
head 6.55149 -4.79882 0.89239
rclavicle -3.71727e-014 -6.36111e-015
rhumerus -45.6017 -17.0396 -75.533
rradius 36.2915
rwrist -7.80261
rhand -5.08425 -55.9847
rfingers 7.12502
rthumb 20.7125 -84.8994
lclavicle -3.71727e-014 -6.36111e-015
lhumerus -33.6259 -11.2736 71.4219
lradius 34.0228
lwrist 4.3154
lhand -20.4547 -10.9064
lfingers 7.12502
lthumb 5.90085 18.9914
rfemur -53.9282 -8.47858 14.3175
rtibia 42.3625
rfoot -5.85522 -10.2993
rtoes -22.822
lfemur -26.6746 -10.4829 -9.17003
ltibia 38.2694
lfoot -29.4953 3.84378
ltoes -25.1281
152
root 0.376595 18.9477 19.1584 -158.68 -2.72863 186.335
lowerback -23.3187 -5.09294 -10.1873
upperback -1.5861 -4.64448 1.06781
thorax 12.1793 -2.94726 5.42229
lowerneck -2.6647 -8.5903 -0.569157
upperneck 19.4086 -11.5378 4.62196
head 6.65779 -4.82914 0.84935
rclavicle 9.93923e-015 5.08889e-014
rhumerus -46.755 -16.6611 -75.0866
rradius 36.3608
rwrist -7.99088
rhand -5.03962 -56.1787
rfingers 7.12502
rthumb 20.7553 -85.0887
lclavicle 9.93923e-015 5.08889e-014
lhumerus -34.3266 -11.6394 71.4774
lradius 34.2965
lwrist 4.26208
lhand -20.0827 -10.9703
lfingers 7.12502
lthumb 6.25997 18.9172
rfemur -53.8056 -8.48565 13.5951
rtibia 41.3012
rfoot -5.06647 -10.4067
rtoes -23.1424
lfemur -26.5044 -10.5698 -8.58505
ltibia 38.6855
lfoot -29.9882 3.38064
ltoes -23.3229
153
root 0.439537 18.9221 19.1071 -158.662 -2.98413 186.621
lowerback -23.5439 -5.17882 -10.2503
upperback -1.53174 -4.71392 1.09488
thorax 12.387 -2.99199 5.45018
lowerneck -2.80595 -8.64475 -0.517201
upperneck 19.5674 -11.6353 4.69047
head 6.73785 -4.85447 0.847116
rclavicle 1.98785e-015 7.95139e-015
rhumerus -46.9701 -17.0256 -74.8889
rradius 36.1822
rwrist -7.81828
rhand -4.66717 -56.0092
rfingers 7.12502
rthumb 21.1132 -84.8797
lclavicle 1.98785e-015 7.95139e-015
lhumerus -34.3078 -12.0551 71.1486
lradius 34.8239
lwrist 4.3346
lhand -20.1362 -10.8116
lfingers 7.12502
lthumb 6.20832 19.0774
rfemur -53.9309 -8.50197 12.8694
rtibia 40.324
rfoot -4.42103 -10.5892
rtoes -22.8379
lfemur -26.5035 -10.6644 -7.94867
ltibia 39.0222
lfoot -30.3961 3.03025
ltoes -21.6077
154
root 0.503044 18.8955 19.0508 -158.731 -3.36316 186.87
lowerback -23.6311 -5.24772 -10.2569
upperback -1.53874 -4.79255 1.05035
thorax 12.437 -3.02984 5.36874
lowerneck -2.80151 -8.5989 -0.547738
upperneck 19.8604 -11.5844 4.87954
head 6.84379 -4.78991 0.912408
rclavicle 4.96962e-015 -3.33958e-014
rhumerus -47.3445 -17.0923 -74.9195
rradius 36.0869
rwrist -7.84019
rhand -4.5727 -56.4799
rfingers 7.12502
rthumb 21.2039 -85.3403
lclavicle 4.96962e-015 -3.33958e-014
lhumerus -34.1371 -12.3939 70.6857
lradius 35.0031
lwrist 4.40508
lhand -19.9596 -11.0393
lfingers 7.12502
lthumb 6.3788 18.8446
rfemur -53.8184 -8.62296 12.0888
rtibia 39.1321
rfoot -3.61149 -10.8833
rtoes -22.7944
lfemur -26.3626 -10.9011 -7.33843
ltibia 39.2024
lfoot -30.6403 2.73156
ltoes -20.5286
155
root 0.568514 18.8718 18.9916 -158.919 -3.67186 187.141
lowerback -23.6585 -5.31231 -10.2978
upperback -1.52994 -4.86171 1.03635
thorax 12.4771 -3.06506 5.34817
lowerneck -2.60399 -8.62522 -0.59782
upperneck 19.9614 -11.6257 5.07982
head 6.85898 -4.78466 0.988913
rclavicle 3.39922e-014 7.95139e-015
rhumerus -47.6778 -16.7636 -75.1425
rradius 36.057
rwrist -8.12526
rhand -4.81833 -57.3323
rfingers 7.12502
rthumb 20.968 -86.219
lclavicle 3.39922e-014 7.95139e-015
lhumerus -33.6528 -12.5428 70.2642
lradius 34.8614
lwrist 4.51682
lhand -19.3057 -10.8531
lfingers 7.12502
lthumb 7.01007 19.0108
rfemur -53.5221 -8.57079 11.2764
rtibia 37.8853
rfoot -2.75741 -11.2455
rtoes -22.516
lfemur -26.1106 -11.0215 -6.75211
ltibia 39.4678
lfoot -30.9624 2.3294
ltoes -19.2818
156
root 0.633821 18.8503 18.9342 -159.065 -3.94567 187.391
lowerback -23.6374 -5.39251 -10.4021
upperback -1.53511 -4.94568 1.06535
thorax 12.4867 -3.11089 5.41068
lowerneck -2.57945 -8.78882 -0.641857
upperneck 20.0869 -11.8644 5.20276
head 6.91427 -4.88175 1.01656
rclavicle 4.19436e-014 -2.06736e-014
rhumerus -48.0129 -16.6893 -75.0753
rradius 35.8689
rwrist -7.86724
rhand -3.69916 -57.6819
rfingers 7.12502
rthumb 22.0428 -86.4457
lclavicle 4.19436e-014 -2.06736e-014
lhumerus -33.2441 -12.7973 69.975
lradius 34.9494
lwrist 4.84211
lhand -18.589 -10.1032
lfingers 7.12502
lthumb 7.70186 19.7366
rfemur -53.2584 -8.44496 10.3534
rtibia 36.7374
rfoot -2.20138 -11.6096
rtoes -20.5096
lfemur -25.9252 -11.1408 -6.18877
ltibia 39.7809
lfoot -31.3266 2.3383
ltoes -19.7217
157
root 0.700226 18.8304 18.8753 -159.261 -4.3292 187.576
lowerback -23.5211 -5.49686 -10.5741
upperback -1.50386 -5.04489 1.0833
thorax 12.4954 -3.16586 5.49736
lowerneck -2.72087 -8.82698 -0.677098
upperneck 20.3672 -11.9278 5.27015
head 7.0389 -4.88599 1.029
rclavicle 3.35946e-014 2.54444e-014
rhumerus -48.4257 -17.0508 -74.6547
rradius 35.4801
rwrist -6.50335
rhand -1.51321 -56.1563
rfingers 7.12502
rthumb 24.1402 -84.6574
lclavicle 3.35946e-014 2.54444e-014
lhumerus -33.0117 -13.3116 69.7263
lradius 35.118
lwrist 4.93916
lhand -18.9583 -10.2198
lfingers 7.12502
lthumb 7.34542 19.6327
rfemur -52.8655 -8.54569 9.43455
rtibia 35.5205
rfoot -1.42147 -11.9586
rtoes -19.7378
lfemur -25.6429 -11.4213 -5.66661
ltibia 39.9806
lfoot -31.6397 2.37925
ltoes -20.7143
